<svg width="20" height="20" viewBox="0 0 20 20" fill="none" xmlns="http://www.w3.org/2000/svg">
<path fill-rule="evenodd" clip-rule="evenodd" d="M4.41058 5.24408C4.73602 4.91864 5.26366 4.91864 5.58909 5.24408L9.75576 9.41074C10.0812 9.73618 10.0812 10.2638 9.75576 10.5893L5.58909 14.7559C5.26366 15.0814 4.73602 15.0814 4.41058 14.7559C4.08514 14.4305 4.08514 13.9028 4.41058 13.5774L7.98799 10L4.41058 6.42259C4.08514 6.09715 4.08514 5.56951 4.41058 5.24408ZM10.2439 5.24408C10.5694 4.91864 11.097 4.91864 11.4224 5.24408L15.5891 9.41074C15.9145 9.73618 15.9145 10.2638 15.5891 10.5893L11.4224 14.7559C11.097 15.0814 10.5694 15.0814 10.2439 14.7559C9.91848 14.4305 9.91848 13.9028 10.2439 13.5774L13.8213 10L10.2439 6.42259C9.91848 6.09715 9.91848 5.56951 10.2439 5.24408Z" fill="white"/>
</svg>
