<svg width="20" height="20" viewBox="0 0 20 20" fill="none" xmlns="http://www.w3.org/2000/svg">
<path fill-rule="evenodd" clip-rule="evenodd" d="M18.5771 19.7521C18.7438 19.9104 18.9521 19.9937 19.1688 19.9937C19.3854 19.9937 19.5938 19.9104 19.7521 19.7521C20.0771 19.4271 20.0771 18.9021 19.7521 18.5771L15.6406 14.4656C15.6141 14.4281 15.5845 14.3928 15.5521 14.3604L5.64376 4.45209C5.61195 4.42117 5.57827 4.39315 5.54307 4.36807L1.41875 0.24375C1.09375 -0.08125 0.56875 -0.08125 0.24375 0.24375C-0.08125 0.56875 -0.08125 1.09375 0.24375 1.41875L3.80643 4.98143C2.2939 6.27912 1.05197 7.83186 0.10209 9.60209C-0.0229102 9.84376 -0.0312436 10.1271 0.0937564 10.3688C0.235423 10.6604 3.72709 17.4938 10.0188 17.4938C11.7543 17.4646 13.4069 16.9632 14.8593 16.0343L18.5771 19.7521ZM13.6438 14.8188L11.7104 12.8854C11.5771 12.9688 11.4438 13.0438 11.2938 13.1021C10.8771 13.2854 10.4438 13.3854 9.99376 13.3938C9.53542 13.3938 9.10209 13.3188 8.68542 13.1521C8.26876 12.9854 7.89376 12.7354 7.57709 12.4188C7.26042 12.1021 7.01042 11.7271 6.84376 11.3104C6.67709 10.8938 6.59376 10.4521 6.60209 10.0021C6.61042 9.55209 6.71042 9.11876 6.89376 8.70209C6.96042 8.56043 7.02709 8.41875 7.11042 8.28542L4.98923 6.16423C3.69958 7.24678 2.62611 8.53713 1.78542 9.99376C2.56876 11.3354 5.51876 15.8271 10.0021 15.8271C11.2938 15.8021 12.5354 15.4604 13.6438 14.8188Z" fill="#565C67"/>
<path d="M16.8354 13.2938C16.9854 13.4188 17.1771 13.4854 17.3688 13.4854C17.6021 13.4854 17.8438 13.3854 18.0021 13.1854C18.7271 12.3271 19.3688 11.3854 19.9021 10.3854C20.0271 10.1438 20.0271 9.86042 19.9104 9.61876C19.7688 9.32709 16.2771 2.49376 10.0021 2.49376C9.32709 2.46876 8.69376 2.56876 8.06042 2.71876C7.61042 2.81876 7.33542 3.26876 7.44376 3.71042C7.54376 4.16042 7.99376 4.44376 8.44376 4.33542C8.95209 4.21876 9.50209 4.18542 10.0021 4.16042C14.4854 4.16042 17.4354 8.65209 18.2188 9.99376C17.7854 10.7438 17.2938 11.4604 16.7354 12.1188C16.4354 12.4688 16.4854 12.9938 16.8354 13.2938Z" fill="#565C67"/>
</svg>