<svg width="20" height="20" viewBox="0 0 20 20" fill="none" xmlns="http://www.w3.org/2000/svg">
<g clip-path="url(#clip0_7231_18226)">
<path d="M11.2961 10.0002L13.8893 7.40783C14.0613 7.23583 14.158 7.00254 14.158 6.75929C14.158 6.51604 14.0613 6.28275 13.8893 6.11075C13.7173 5.93874 13.484 5.84211 13.2408 5.84211C12.9975 5.84211 12.7643 5.93874 12.5923 6.11075L9.99992 8.704L7.40759 6.11075C7.23558 5.93874 7.00229 5.84211 6.75904 5.84211C6.51579 5.84211 6.28251 5.93874 6.1105 6.11075C5.9385 6.28275 5.84187 6.51604 5.84187 6.75929C5.84187 7.00254 5.9385 7.23583 6.1105 7.40783L8.70375 10.0002L6.1105 12.5925C5.9385 12.7645 5.84187 12.9978 5.84187 13.241C5.84187 13.4843 5.9385 13.7176 6.1105 13.8896C6.28251 14.0616 6.51579 14.1582 6.75904 14.1582C7.00229 14.1582 7.23558 14.0616 7.40759 13.8896L9.99992 11.2963L12.5923 13.8896C12.7643 14.0616 12.9975 14.1582 13.2408 14.1582C13.484 14.1582 13.7173 14.0616 13.8893 13.8896C14.0613 13.7176 14.158 13.4843 14.158 13.241C14.158 12.9978 14.0613 12.7645 13.8893 12.5925L11.2961 10.0002ZM9.99992 19.1668C4.93717 19.1668 0.833252 15.0629 0.833252 10.0002C0.833252 4.93741 4.93717 0.833496 9.99992 0.833496C15.0627 0.833496 19.1666 4.93741 19.1666 10.0002C19.1666 15.0629 15.0627 19.1668 9.99992 19.1668Z" fill="#B1B5BE"/>
</g>
<defs>
<clipPath id="clip0_7231_18226">
<rect width="20" height="20" fill="white"/>
</clipPath>
</defs>
</svg>
